<svg width="88" height="79" viewBox="0 0 88 79" fill="none" xmlns="http://www.w3.org/2000/svg">
<path d="M1.65565 33.649L1.38424 34.6934C1.34901 34.8261 1.2629 34.9396 1.14457 35.0093C1.02624 35.0789 0.885214 35.0992 0.752062 35.0656C0.619435 35.0303 0.506094 34.9441 0.436697 34.8257C0.367301 34.7074 0.347464 34.5663 0.381502 34.4334L1.20469 31.2548C1.23994 31.1222 1.32614 31.0088 1.44453 30.9394C1.56292 30.87 1.70393 30.8502 1.83687 30.8842C1.96942 30.9191 2.08287 31.0049 2.15256 31.1229C2.22226 31.2409 2.24257 31.3816 2.2091 31.5145L1.93748 32.5608L5.37604 33.4527C5.44769 33.4708 5.51505 33.5028 5.57423 33.5471C5.63341 33.5913 5.68323 33.6468 5.72081 33.7105C5.75839 33.7741 5.78298 33.8445 5.79317 33.9177C5.80335 33.9909 5.79892 34.0653 5.78014 34.1368C5.76189 34.2084 5.72961 34.2758 5.68516 34.3348C5.64072 34.3939 5.585 34.4436 5.52123 34.481C5.45746 34.5184 5.3869 34.5428 5.31363 34.5528C5.24037 34.5627 5.16586 34.558 5.09442 34.539L1.65565 33.649ZM2.97834 27.9956C2.70026 27.8498 2.59799 27.5144 2.74379 27.2361C2.7779 27.1705 2.8247 27.1123 2.88146 27.065C2.93823 27.0176 3.00383 26.9819 3.07448 26.9601C3.14512 26.9383 3.2194 26.9307 3.293 26.9377C3.3666 26.9448 3.43806 26.9665 3.50324 27.0014L4.83114 27.7038L5.79846 25.8714L4.46891 25.1707C4.40338 25.1365 4.34528 25.0896 4.29796 25.0328C4.25065 24.9761 4.21506 24.9105 4.19325 24.8399C4.17144 24.7692 4.16384 24.695 4.1709 24.6214C4.17796 24.5478 4.19953 24.4764 4.23437 24.4112C4.26847 24.3456 4.31527 24.2874 4.37203 24.24C4.4288 24.1927 4.4944 24.157 4.56505 24.1352C4.63569 24.1133 4.70997 24.1057 4.78357 24.1128C4.85717 24.1199 4.92864 24.1415 4.99382 24.1765L8.59318 26.0761C8.8698 26.2219 8.97374 26.5573 8.82793 26.8354C8.79372 26.9009 8.74687 26.959 8.69009 27.0063C8.63331 27.0536 8.56773 27.0892 8.49712 27.111C8.42651 27.1328 8.35228 27.1404 8.27871 27.1334C8.20514 27.1264 8.13369 27.1049 8.06848 27.0701L6.71393 26.3542L5.74827 28.1868L7.10282 28.9008C7.37944 29.0466 7.48338 29.382 7.33757 29.6603C7.30336 29.7258 7.25651 29.7839 7.19973 29.8312C7.14295 29.8785 7.07736 29.9141 7.00676 29.9359C6.93615 29.9577 6.86192 29.9654 6.78835 29.9583C6.71478 29.9513 6.64333 29.9298 6.57812 29.895L2.97834 27.9956ZM10.0317 23.9165L6.94181 21.4051C6.88413 21.3589 6.83619 21.3018 6.80079 21.237C6.76539 21.1722 6.74322 21.101 6.73559 21.0275C6.72795 20.9541 6.73499 20.8798 6.75631 20.8091C6.77762 20.7384 6.81278 20.6726 6.85974 20.6156L8.64526 18.4191C8.72954 18.3158 8.85139 18.2502 8.98403 18.2367C9.11667 18.2232 9.24924 18.2629 9.35263 18.3471C9.56905 18.5214 9.59592 18.8349 9.42137 19.0494L7.98475 20.815L8.7894 21.4688L10.0167 19.9582C10.1011 19.8547 10.2231 19.7888 10.356 19.775C10.4889 19.7611 10.6218 19.8005 10.7257 19.8845C10.9403 20.0605 10.9673 20.3723 10.7928 20.5885L9.56384 22.0991L10.3956 22.7748L11.8541 20.981C11.9387 20.8775 12.0608 20.8118 12.1938 20.7983C12.3267 20.7847 12.4596 20.8244 12.5633 20.9087C12.7779 21.0833 12.8047 21.3967 12.6304 21.6113L10.8213 23.8359C10.7751 23.8935 10.7179 23.9414 10.6531 23.9767C10.5882 24.012 10.517 24.034 10.4435 24.0415C10.37 24.049 10.2958 24.0418 10.2251 24.0204C10.1545 23.9989 10.0888 23.9636 10.0319 23.9165H10.0317ZM14.7596 17.3075L14.7479 17.2925C14.0453 16.4239 14.3772 15.4482 15.3597 14.6519C15.809 14.2882 16.1846 14.097 16.577 13.9428L16.498 13.8439C16.0354 13.2721 15.4386 13.2519 14.7898 13.7768C14.4394 14.0601 14.1997 14.3553 14.0287 14.6586C13.9932 14.711 13.9503 14.7579 13.9012 14.7979C13.6883 14.9706 13.3763 14.9454 13.2055 14.7325C13.0697 14.5648 13.0664 14.3267 13.1601 14.1624C13.4234 13.7098 13.7385 13.3042 14.2632 12.8782C14.8669 12.3904 15.4453 12.1859 15.9617 12.2479C16.493 12.2965 16.9761 12.6116 17.4018 13.138L19.0061 15.1181C19.209 15.3695 19.1655 15.7217 18.9141 15.9246C18.6475 16.1408 18.3171 16.1056 18.1496 15.901L18.0255 15.7484C18.0171 16.2983 17.8076 16.8969 17.1906 17.3964C16.4362 18.0067 15.4134 18.1157 14.7596 17.3077V17.3075ZM17.2844 14.7846L17.0615 14.5096C16.7511 14.6102 16.3841 14.7946 16.0187 15.0912C15.4234 15.5723 15.2776 16.1073 15.6163 16.5263L15.628 16.5416C15.9431 16.9304 16.4645 16.8734 16.9071 16.5147C17.5158 16.0219 17.6968 15.2959 17.2844 14.7846ZM20.4196 13.4448L21.0281 11.6526C21.2947 10.8713 21.3551 10.4957 21.1304 10.1335C20.9008 9.76483 20.5319 9.71775 20.1882 9.93084C19.9149 10.1016 19.7941 10.3416 19.7154 10.7557C19.7009 10.8256 19.6721 10.8917 19.6308 10.9499C19.5896 11.0082 19.5367 11.0573 19.4756 11.0942C19.4184 11.1305 19.3546 11.155 19.2878 11.1664C19.221 11.1778 19.1527 11.1758 19.0867 11.1606C19.0207 11.1453 18.9584 11.117 18.9034 11.0775C18.8484 11.0379 18.8018 10.9878 18.7664 10.93C18.7005 10.8191 18.6744 10.6889 18.6927 10.5611C18.7883 9.93751 19.053 9.4428 19.7154 9.03037C20.619 8.46714 21.5494 8.62482 22.0591 9.44113L22.0658 9.45467C22.522 10.1837 22.3726 10.7807 21.9721 11.8622L21.6032 12.8547L23.1254 11.9057C23.1803 11.8714 23.2415 11.8483 23.3054 11.8376C23.3692 11.827 23.4346 11.8291 23.4976 11.8437C23.5607 11.8583 23.6203 11.8853 23.6729 11.923C23.7256 11.9607 23.7703 12.0084 23.8045 12.0634C23.9486 12.2929 23.8732 12.5914 23.6434 12.7356L21.2712 14.2126C20.9712 14.4005 20.6475 14.3667 20.4698 14.0801C20.3526 13.8941 20.339 13.676 20.4194 13.4448H20.4196ZM26.113 6.24899C26.0843 6.18083 26.0695 6.10763 26.0694 6.03367C26.0693 5.95971 26.084 5.88648 26.1126 5.81827C26.1412 5.75005 26.183 5.68822 26.2358 5.63639C26.2886 5.58455 26.3511 5.54377 26.4198 5.51641L26.5338 5.46954C26.7567 5.37893 26.9581 5.42913 27.1172 5.54495L29.2112 7.07218L29.6305 4.50388C29.6657 4.28413 29.778 4.13499 29.9875 4.04938L30.1015 4.00251C30.1697 3.97387 30.2429 3.95905 30.3169 3.95891C30.3909 3.95877 30.4641 3.97331 30.5324 4.0017C30.6007 4.03008 30.6628 4.07174 30.7149 4.12426C30.7669 4.17678 30.8081 4.23912 30.8359 4.30766L32.3765 8.05805C32.4053 8.1262 32.4203 8.19942 32.4205 8.27342C32.4207 8.34742 32.4062 8.42072 32.3779 8.48906C32.3495 8.5574 32.3078 8.61941 32.2552 8.67147C32.2026 8.72353 32.1402 8.7646 32.0715 8.79229C31.7883 8.9081 31.4612 8.76563 31.3454 8.48214L30.3764 6.12839L30.0429 7.90724C30.0025 8.11345 29.9088 8.26926 29.7193 8.34633C29.5316 8.42527 29.3537 8.3782 29.1793 8.26093L27.7142 7.24652L28.6799 9.59527C28.7955 9.87856 28.658 10.1956 28.3747 10.3112C28.3084 10.3394 28.2372 10.3541 28.1651 10.3545C28.0931 10.3548 28.0217 10.3407 27.9552 10.3131C27.8887 10.2855 27.8283 10.2448 27.7777 10.1936C27.7271 10.1423 27.6872 10.0815 27.6604 10.0146L26.113 6.24899ZM33.8319 3.36366C33.8107 3.29278 33.8039 3.2184 33.8119 3.14487C33.8198 3.07133 33.8423 3.00011 33.878 2.93535C33.9137 2.8706 33.962 2.8136 34.02 2.76769C34.078 2.72178 34.1445 2.68788 34.2158 2.66795C34.2866 2.6468 34.361 2.63998 34.4346 2.64789C34.5081 2.6558 34.5793 2.67828 34.6441 2.71401C34.7089 2.74975 34.7659 2.79803 34.8118 2.85603C34.8577 2.91404 34.8916 2.9806 34.9115 3.05184L36.0381 6.96324C36.0592 7.03401 36.0659 7.10826 36.0579 7.18165C36.0499 7.25505 36.0274 7.32612 35.9917 7.39072C35.9559 7.45532 35.9077 7.51216 35.8498 7.55793C35.7918 7.60369 35.7254 7.63747 35.6542 7.65728C35.5835 7.67841 35.5092 7.68521 35.4358 7.67728C35.3623 7.66936 35.2912 7.64686 35.2266 7.61111C35.162 7.57536 35.1051 7.52708 35.0594 7.46909C35.0136 7.4111 34.9799 7.34457 34.9602 7.27339L33.8319 3.36366ZM37.9159 2.28573C37.9018 2.21314 37.9023 2.13846 37.9173 2.06605C37.9323 1.99364 37.9616 1.92494 38.0034 1.86394C38.0452 1.80295 38.0987 1.75087 38.1608 1.71074C38.223 1.67062 38.2924 1.64325 38.3652 1.63022C38.4378 1.6162 38.5125 1.61673 38.5848 1.63178C38.6572 1.64683 38.7259 1.6761 38.7869 1.7179C38.8478 1.75969 38.8999 1.81318 38.9401 1.87525C38.9802 1.93733 39.0076 2.00676 39.0207 2.07951L39.6727 5.58515L41.7165 5.20626C41.7824 5.19338 41.8502 5.19373 41.9159 5.20731C41.9817 5.22088 42.0441 5.2474 42.0995 5.28531C42.1549 5.32323 42.2022 5.37179 42.2386 5.42816C42.2751 5.48454 42.3 5.5476 42.3118 5.61368C42.3245 5.67966 42.324 5.7475 42.3102 5.81327C42.2965 5.87903 42.2698 5.94141 42.2317 5.99678C42.1937 6.05214 42.145 6.0994 42.0885 6.13579C42.032 6.17219 41.9689 6.197 41.9027 6.20879L39.3074 6.69162C39.2348 6.70589 39.1602 6.70553 39.0879 6.69057C39.0155 6.67561 38.9468 6.64635 38.8859 6.6045C38.825 6.56265 38.7731 6.50905 38.7332 6.44686C38.6933 6.38467 38.6662 6.31513 38.6535 6.24232L37.9159 2.28573ZM44.305 1.2834C44.3008 1.20961 44.3112 1.1357 44.3358 1.066C44.3604 0.996293 44.3987 0.932184 44.4483 0.87741C44.4979 0.822636 44.558 0.778294 44.6249 0.74697C44.6919 0.715646 44.7644 0.697968 44.8383 0.694966C44.9121 0.690931 44.986 0.701612 45.0557 0.726387C45.1254 0.751163 45.1895 0.789541 45.2442 0.839289C45.2989 0.889038 45.3432 0.949167 45.3745 1.01618C45.4058 1.0832 45.4235 1.15576 45.4265 1.22966L45.5088 2.94145L47.4786 0.787033C47.6111 0.641226 47.7452 0.554158 47.9413 0.545617C48.2549 0.53062 48.4712 0.760163 48.4845 1.03699C48.4928 1.213 48.4191 1.34714 48.3001 1.46941L46.9304 2.87958L48.5918 4.7705C48.684 4.87611 48.7563 4.99025 48.7628 5.15626C48.778 5.46975 48.5499 5.7145 48.2212 5.73116C48.0033 5.74095 47.8658 5.6391 47.735 5.48475L46.1859 3.64549L45.5742 4.27434L45.6227 5.29353C45.627 5.36734 45.6165 5.44127 45.592 5.511C45.5674 5.58073 45.5291 5.64487 45.4795 5.69966C45.4299 5.75446 45.3698 5.79882 45.3028 5.83016C45.2359 5.86149 45.1633 5.87918 45.0895 5.88218C45.0157 5.88644 44.9418 5.87597 44.8721 5.85137C44.8024 5.82677 44.7382 5.78854 44.6835 5.7389C44.6287 5.68927 44.5844 5.62922 44.553 5.56227C44.5217 5.49532 44.504 5.4228 44.501 5.34894L44.305 1.2834ZM53.2695 3.38574L53.2728 3.37075C53.5242 1.94058 54.8071 0.959503 56.3529 1.23154C57.1071 1.36381 57.5818 1.65396 57.9439 2.03619C58.0018 2.09969 58.0445 2.17561 58.0686 2.25814C58.0928 2.34067 58.0977 2.42763 58.083 2.51235C58.0293 2.81397 57.7427 3.00852 57.4408 2.95499C57.29 2.92978 57.2013 2.85417 57.1307 2.78897C56.8607 2.50569 56.5608 2.31947 56.1667 2.24907C55.3183 2.09993 54.584 2.69836 54.4316 3.56009L54.4297 3.57342C54.2789 4.43681 54.7484 5.26 55.6101 5.41101C56.0777 5.49308 56.4114 5.40372 56.772 5.20813C56.8781 5.14595 57.0028 5.12336 57.124 5.14439C57.404 5.19292 57.6002 5.46454 57.5514 5.74449C57.5212 5.91738 57.4106 6.03798 57.295 6.10672C56.7737 6.42188 56.2002 6.56602 55.3954 6.42542C53.915 6.16546 53.0166 4.82924 53.2697 3.38574H53.2695ZM60.1333 4.78216L60.1383 4.76883C60.6715 3.41907 62.1737 2.73357 63.6389 3.31201C65.1059 3.89211 65.7262 5.39914 65.1913 6.7489L65.1863 6.76223C64.6533 8.11345 63.1513 8.79937 61.6859 8.21906C60.2206 7.64062 59.6002 6.13359 60.1333 4.78216ZM64.0884 6.34481L64.0932 6.33127C64.4152 5.51662 64.0865 4.60282 63.245 4.271C62.405 3.93898 61.5584 4.37307 61.2364 5.18626L61.2314 5.20146C60.9096 6.01445 61.2383 6.92824 62.0798 7.26194C62.9213 7.59375 63.7664 7.15945 64.0884 6.34481ZM68.7307 6.40188C68.7725 6.34105 68.826 6.28913 68.8881 6.24914C68.9501 6.20916 69.0195 6.1819 69.0922 6.16895C69.1648 6.15601 69.2394 6.15763 69.3114 6.17373C69.3835 6.18983 69.4516 6.22008 69.5118 6.26274L69.6141 6.33314C69.8103 6.47062 69.8774 6.6685 69.8657 6.86451L69.7147 9.45488L72.1005 8.41548C72.3051 8.32654 72.4911 8.33987 72.6773 8.47068L72.7777 8.54109C72.8388 8.58266 72.8911 8.63601 72.9313 8.698C72.9716 8.76 72.9991 8.8294 73.0122 8.90215C73.0253 8.9749 73.0238 9.04953 73.0078 9.12169C72.9917 9.19385 72.9615 9.26208 72.9187 9.32241L70.5983 12.6487C70.5565 12.7098 70.503 12.762 70.4408 12.8022C70.3787 12.8425 70.3092 12.8699 70.2363 12.883C70.1634 12.8961 70.0887 12.8946 70.0164 12.8786C69.9441 12.8625 69.8758 12.8322 69.8153 12.7895C69.5639 12.6135 69.507 12.2631 69.6828 12.0115L71.1382 9.92272L69.4633 10.6032C69.2671 10.6803 69.0842 10.6872 68.9167 10.5699C68.7507 10.4524 68.6938 10.2797 68.6972 10.0702L68.7576 8.288L67.3058 10.3703C67.2642 10.4297 67.2113 10.4802 67.15 10.5189C67.0888 10.5577 67.0205 10.5839 66.9491 10.5961C66.8776 10.6082 66.8045 10.6061 66.7339 10.5898C66.6633 10.5735 66.5966 10.5434 66.5378 10.5012C66.4782 10.4607 66.4273 10.4087 66.3881 10.3483C66.3489 10.2878 66.3221 10.2201 66.3095 10.1492C66.2968 10.0783 66.2985 10.0056 66.3144 9.93528C66.3303 9.86501 66.36 9.79863 66.402 9.74004L68.7307 6.40188ZM75.3629 11.5991C75.4167 11.5484 75.4801 11.5089 75.5493 11.483C75.6186 11.4571 75.6923 11.4453 75.7662 11.4483C75.84 11.4513 75.9126 11.469 75.9795 11.5003C76.0465 11.5317 76.1065 11.5761 76.1561 11.631L77.1905 12.751C78.0153 13.6462 77.9851 14.6773 77.219 15.3847L77.2071 15.3945C76.3385 16.1958 75.2658 15.936 74.4895 15.0945L73.9094 14.4675L73.1649 15.1549C73.1111 15.2056 73.0477 15.245 72.9785 15.2709C72.9092 15.2967 72.8356 15.3085 72.7617 15.3055C72.6879 15.3025 72.6153 15.2848 72.5484 15.2535C72.4815 15.2221 72.4215 15.1777 72.3719 15.1228C72.3213 15.069 72.2818 15.0057 72.256 14.9364C72.2301 14.8672 72.2183 14.7935 72.2213 14.7197C72.2242 14.6458 72.2419 14.5733 72.2733 14.5064C72.3046 14.4394 72.349 14.3794 72.4038 14.3299L75.3629 11.5991ZM75.2475 14.4442C75.6297 14.8566 76.0994 14.87 76.4194 14.5734L76.4312 14.5636C76.7999 14.2232 76.7614 13.7825 76.3808 13.37L75.7924 12.7312L74.6441 13.7906L75.2475 14.4442ZM76.2769 18.4193L80.6309 17.8157C80.9327 17.7755 81.1941 17.8794 81.3552 18.1392L81.3906 18.1946C81.5514 18.4562 81.5245 18.7295 81.3535 18.9809L78.8739 22.6124C78.8252 22.6842 78.775 22.7432 78.7129 22.7817C78.4582 22.9392 78.1311 22.8671 77.9735 22.6124C77.8345 22.3895 77.8731 22.1597 78.0172 21.95L78.5186 21.2359L77.3365 19.3263L76.4346 19.4637C76.1982 19.4973 75.9867 19.4052 75.8645 19.2073C75.7103 18.959 75.7891 18.6439 76.0373 18.4898C76.1061 18.4479 76.1898 18.431 76.2769 18.4193ZM79.1439 20.359L80.2035 18.8703L78.3978 19.1569L79.1439 20.359ZM83.491 23.4085C83.5602 23.3827 83.6339 23.3708 83.7077 23.3736C83.7815 23.3765 83.8541 23.3939 83.9211 23.4249C83.9881 23.456 84.0484 23.5 84.0983 23.5544C84.1482 23.6089 84.1868 23.6727 84.212 23.7422L84.2521 23.853C84.3444 24.1061 84.2774 24.3023 84.1449 24.5135L82.2186 27.5263L84.6914 26.621C84.7597 26.5958 84.8322 26.5843 84.9049 26.5871C84.9776 26.59 85.0491 26.6072 85.1151 26.6377C85.1812 26.6682 85.2405 26.7115 85.2898 26.765C85.3391 26.8185 85.3774 26.8812 85.4024 26.9495C85.4277 27.0179 85.4392 27.0905 85.4364 27.1634C85.4335 27.2362 85.4164 27.3077 85.3858 27.3739C85.3553 27.4401 85.312 27.4996 85.2584 27.549C85.2049 27.5984 85.1421 27.6368 85.0737 27.6619L81.2579 29.0602C81.1887 29.0861 81.1151 29.098 81.0413 29.0952C80.9675 29.0924 80.8949 29.075 80.8279 29.044C80.7608 29.0129 80.7006 28.9689 80.6507 28.9145C80.6008 28.86 80.5622 28.7962 80.5372 28.7267L80.5253 28.6915C80.4314 28.4384 80.5001 28.2422 80.6326 28.031L82.626 24.9076L80.0575 25.848C79.9194 25.8988 79.7669 25.8927 79.6334 25.8311C79.4998 25.7695 79.3961 25.6575 79.3451 25.5196C79.295 25.3812 79.3016 25.2288 79.3634 25.0953C79.4253 24.9618 79.5374 24.8582 79.6752 24.807L83.491 23.4085ZM83.5312 32.6564L85.4594 30.653C85.5532 30.5558 85.6723 30.4751 85.8298 30.4485C86.1249 30.3981 86.4049 30.601 86.4586 30.9094C86.5003 31.1609 86.3916 31.3437 86.2137 31.5148L84.6629 33.0387L86.653 33.9774C86.8777 34.0799 87.0352 34.2222 87.0756 34.4519C87.1341 34.7906 86.9313 35.032 86.6296 35.0841C86.4786 35.111 86.3295 35.0623 86.2156 35.0071L83.7443 33.7612L82.2925 34.0112C82.2196 34.0242 82.1449 34.0226 82.0727 34.0065C82.0005 33.9904 81.9322 33.9601 81.8718 33.9173C81.8114 33.8746 81.7601 33.8202 81.7209 33.7574C81.6817 33.6947 81.6553 33.6247 81.6434 33.5517C81.6304 33.479 81.6319 33.4044 81.6479 33.3322C81.6639 33.2601 81.694 33.1919 81.7366 33.1315C81.7792 33.0711 81.8334 33.0198 81.896 32.9806C81.9586 32.9413 82.0284 32.9149 82.1013 32.9028L83.5312 32.6564ZM4.82947 45.3159C4.90059 45.2956 4.97504 45.2898 5.04844 45.2988C5.12185 45.3077 5.19272 45.3312 5.25691 45.3679C5.32109 45.4047 5.3773 45.4538 5.42222 45.5126C5.46715 45.5713 5.49989 45.6384 5.51851 45.71L6.26963 48.4678C6.28773 48.5324 6.29284 48.6 6.28464 48.6666C6.27645 48.7332 6.25512 48.7976 6.2219 48.8559C6.18867 48.9142 6.14421 48.9653 6.09109 49.0063C6.03796 49.0473 5.97723 49.0774 5.9124 49.0948C5.84768 49.113 5.77997 49.1182 5.71322 49.11C5.64648 49.1018 5.58204 49.0804 5.52367 49.047C5.4653 49.0136 5.41417 48.9689 5.37326 48.9155C5.33236 48.8621 5.3025 48.8011 5.28543 48.7361L4.68199 46.5198L3.63239 46.8064L4.15042 48.7059C4.16856 48.7706 4.17364 48.8383 4.16538 48.905C4.15712 48.9717 4.13568 49.0361 4.1023 49.0945C4.06892 49.1528 4.02428 49.2039 3.97096 49.2448C3.91764 49.2858 3.85672 49.3157 3.79174 49.3329C3.72701 49.3507 3.6594 49.3556 3.59279 49.3472C3.52618 49.3388 3.46189 49.3173 3.40361 49.284C3.34534 49.2506 3.29424 49.2061 3.25324 49.1529C3.21225 49.0998 3.18218 49.039 3.16476 48.9742L2.64652 47.0745L1.23989 47.4586C1.16866 47.4785 1.09418 47.484 1.0208 47.4748C0.947417 47.4656 0.876599 47.4419 0.812469 47.4051C0.748339 47.3682 0.69218 47.319 0.647264 47.2603C0.602348 47.2015 0.569573 47.1344 0.550848 47.0629C0.530827 46.9917 0.525169 46.9173 0.534204 46.844C0.543238 46.7707 0.566784 46.6999 0.603467 46.6357C0.640151 46.5716 0.689238 46.5154 0.747867 46.4704C0.806495 46.4255 0.87349 46.3926 0.944945 46.3738L4.82947 45.3159ZM3.29037 53.1889L6.79267 51.2913C6.85739 51.2557 6.92853 51.2333 7.00197 51.2254C7.07541 51.2175 7.14968 51.2243 7.22048 51.2454C7.29128 51.2664 7.3572 51.3013 7.41441 51.348C7.47163 51.3947 7.519 51.4523 7.55378 51.5175L8.90167 54.007C8.96525 54.1244 8.97962 54.2622 8.94162 54.3902C8.90361 54.5182 8.81634 54.6258 8.699 54.6894C8.45571 54.8202 8.15576 54.7263 8.02328 54.4832L6.93847 52.4815L6.02822 52.9743L6.95701 54.6878C7.01979 54.8053 7.0337 54.9429 6.99573 55.0706C6.95775 55.1984 6.87094 55.306 6.75413 55.3701C6.50938 55.5026 6.20923 55.407 6.07675 55.1639L5.14983 53.4505L4.2075 53.9618L5.30897 55.9954C5.37214 56.1129 5.38626 56.2506 5.34825 56.3785C5.31024 56.5063 5.22318 56.6139 5.10609 56.6778C4.86134 56.8103 4.56118 56.7147 4.43037 56.4716L3.06395 53.9502C3.02814 53.8855 3.00558 53.8143 2.9976 53.7408C2.98961 53.6673 2.99636 53.5929 3.01744 53.522C3.03851 53.4511 3.07351 53.3852 3.12037 53.328C3.16723 53.2708 3.22502 53.2235 3.29037 53.1889ZM6.96368 59.2228L10.0217 56.6712C10.0781 56.6233 10.1435 56.5871 10.214 56.5647C10.2846 56.5424 10.3589 56.5344 10.4326 56.5411C10.5063 56.5478 10.5779 56.5691 10.6432 56.6038C10.7086 56.6385 10.7664 56.6859 10.8132 56.7432L12.6254 58.916C12.7107 59.0186 12.752 59.1508 12.74 59.2838C12.7281 59.4167 12.6639 59.5395 12.5617 59.6252C12.3488 59.8029 12.0367 59.7694 11.8593 59.5565L10.4006 57.8095L9.60592 58.4719L10.8532 59.9672C10.9386 60.0699 10.9798 60.2021 10.9678 60.335C10.9559 60.468 10.8917 60.5908 10.7895 60.6765C10.5766 60.8542 10.2631 60.8206 10.0854 60.6078L8.83814 59.1122L8.01495 59.7996L9.49531 61.5751C9.58061 61.6777 9.62178 61.8099 9.60984 61.9428C9.59789 62.0756 9.5338 62.1984 9.43158 62.2841C9.2187 62.462 8.90667 62.4285 8.72899 62.2154L6.89161 60.0141C6.84392 59.9576 6.80793 59.8922 6.78573 59.8217C6.76352 59.7512 6.75554 59.677 6.76224 59.6034C6.76895 59.5298 6.7902 59.4582 6.82478 59.3929C6.85936 59.3276 6.90657 59.2697 6.96368 59.2228ZM14.1374 61.1912C14.1855 61.135 14.2444 61.0889 14.3105 61.0557C14.3765 61.0224 14.4486 61.0026 14.5224 60.9975C14.5962 60.9923 14.6703 61.0019 14.7404 61.0256C14.8105 61.0494 14.8751 61.0868 14.9306 61.1358C14.9868 61.1839 15.0328 61.2427 15.066 61.3088C15.0992 61.3749 15.119 61.4469 15.1241 61.5207C15.1293 61.5945 15.1197 61.6686 15.0959 61.7386C15.0722 61.8087 15.0348 61.8733 14.9858 61.9288L12.6421 64.6179L14.2097 65.9843C14.2606 66.0282 14.3023 66.0817 14.3324 66.1418C14.3625 66.2018 14.3804 66.2673 14.3851 66.3343C14.3897 66.4013 14.3811 66.4686 14.3596 66.5323C14.3381 66.596 14.3042 66.6547 14.2599 66.7052C14.216 66.7562 14.1625 66.7979 14.1024 66.8279C14.0423 66.858 13.9768 66.8758 13.9097 66.8804C13.8427 66.8849 13.7754 66.8761 13.7118 66.8544C13.6482 66.8327 13.5895 66.7985 13.5392 66.754L11.5472 65.0203C11.4912 64.9721 11.4453 64.9132 11.4122 64.847C11.3791 64.7809 11.3595 64.7088 11.3545 64.635C11.3495 64.5612 11.3593 64.4872 11.3832 64.4172C11.4071 64.3472 11.4446 64.2827 11.4937 64.2273L14.1374 61.1912ZM20.0003 66.4017L19.0884 65.8233C18.9731 65.7494 18.8916 65.6328 18.8617 65.4991C18.8319 65.3653 18.8561 65.2252 18.9291 65.1093C19.0025 64.9932 19.1189 64.9111 19.2529 64.8809C19.3868 64.8507 19.5272 64.8749 19.6433 64.9482L22.4147 66.7069C22.5301 66.7809 22.6116 66.8975 22.6414 67.0312C22.6712 67.165 22.6469 67.3052 22.5738 67.4211C22.5004 67.537 22.3839 67.619 22.2501 67.6492C22.1163 67.6794 21.9759 67.6553 21.8598 67.5822L20.9477 67.0037L19.0449 70.0032C19.0059 70.066 18.9548 70.1204 18.8945 70.1632C18.8342 70.206 18.766 70.2363 18.6938 70.2524C18.6217 70.2684 18.547 70.2699 18.4743 70.2567C18.4016 70.2436 18.3322 70.216 18.2702 70.1757C18.2076 70.1366 18.1533 70.0854 18.1107 70.0251C18.068 69.9648 18.0377 69.8967 18.0217 69.8246C18.0056 69.7525 18.004 69.678 18.017 69.6053C18.0301 69.5326 18.0574 69.4632 18.0975 69.4012L20.0003 66.4017ZM24.2756 68.3483C24.3064 68.2811 24.3502 68.2207 24.4045 68.1707C24.4588 68.1206 24.5226 68.0819 24.592 68.0567C24.6615 68.0316 24.7353 68.0206 24.8091 68.0243C24.8828 68.028 24.9552 68.0464 25.0217 68.0783C25.0889 68.1091 25.1493 68.1529 25.1993 68.2072C25.2493 68.2616 25.288 68.3253 25.3131 68.3948C25.3383 68.4642 25.3493 68.538 25.3456 68.6118C25.3418 68.6856 25.3235 68.7579 25.2915 68.8244L24.6545 70.1857L26.5304 71.0643L27.1676 69.7028C27.1987 69.6358 27.2428 69.5755 27.2973 69.5256C27.3518 69.4757 27.4157 69.437 27.4852 69.412C27.5548 69.3869 27.6286 69.3758 27.7024 69.3795C27.7763 69.3831 27.8487 69.4013 27.9154 69.4331C27.9824 69.4639 28.0427 69.5078 28.0926 69.5621C28.1426 69.6165 28.1812 69.6802 28.2063 69.7496C28.2314 69.819 28.2425 69.8927 28.2389 69.9664C28.2353 70.0401 28.2171 70.1124 28.1854 70.179L26.4586 73.8658C26.4278 73.933 26.384 73.9934 26.3297 74.0434C26.2753 74.0934 26.2116 74.1321 26.1421 74.1572C26.0726 74.1824 25.9989 74.1934 25.9251 74.1897C25.8513 74.1859 25.779 74.1676 25.7125 74.1356C25.6452 74.1049 25.5848 74.0612 25.5346 74.007C25.4844 73.9527 25.4456 73.889 25.4203 73.8196C25.395 73.7501 25.3838 73.6764 25.3873 73.6026C25.3909 73.5287 25.409 73.4564 25.4408 73.3897L26.0914 72.0014L24.2152 71.123L23.5647 72.5111C23.5338 72.5781 23.4899 72.6384 23.4356 72.6883C23.3812 72.7383 23.3175 72.7769 23.2481 72.802C23.1787 72.8271 23.105 72.8382 23.0312 72.8346C22.9575 72.831 22.8852 72.8128 22.8186 72.781C22.7514 72.7501 22.691 72.7061 22.641 72.6516C22.591 72.5971 22.5523 72.5332 22.5272 72.4636C22.5021 72.394 22.491 72.3201 22.4948 72.2463C22.4985 72.1724 22.5169 72.1 22.5488 72.0332L24.2756 68.3483ZM29.1108 74.843L30.3464 71.0559C30.3689 70.9854 30.4051 70.92 30.453 70.8636C30.5009 70.8073 30.5596 70.7609 30.6256 70.7274C30.6915 70.6939 30.7635 70.6738 30.8373 70.6683C30.9111 70.6629 30.9853 70.6721 31.0555 70.6956L33.7463 71.574C33.8091 71.5945 33.8673 71.6272 33.9175 71.6703C33.9678 71.7133 34.009 71.7659 34.0389 71.8249C34.0688 71.8839 34.0868 71.9482 34.0918 72.0141C34.0969 72.0801 34.0889 72.1464 34.0683 72.2093C33.9829 72.4725 33.6996 72.61 33.4361 72.5244L31.2719 71.8187L30.9515 72.8029L32.8025 73.4063C32.9291 73.4484 33.0341 73.5387 33.0947 73.6576C33.1552 73.7765 33.1664 73.9145 33.1259 74.0416C33.1053 74.1041 33.0724 74.1618 33.0293 74.2115C32.9862 74.2612 32.9337 74.3019 32.8748 74.3312C32.8159 74.3605 32.7518 74.3779 32.6861 74.3823C32.6205 74.3868 32.5546 74.3782 32.4923 74.357L30.6414 73.7534L30.3077 74.7728L32.5073 75.4903C32.6341 75.5321 32.7392 75.6224 32.7995 75.7415C32.8599 75.8606 32.8706 75.9987 32.8293 76.1256C32.7439 76.3889 32.4606 76.5264 32.1972 76.4408L29.4712 75.5505C29.4007 75.5283 29.3354 75.4922 29.279 75.4445C29.2226 75.3967 29.1763 75.3382 29.1428 75.2724C29.1092 75.2065 29.0891 75.1347 29.0837 75.061C29.0782 74.9873 29.0874 74.9132 29.1108 74.8432V74.843ZM38.0047 73.2253C38.0152 73.1521 38.0402 73.0817 38.0782 73.0183C38.1163 72.9549 38.1666 72.8997 38.2262 72.8559C38.2859 72.8122 38.3537 72.7808 38.4256 72.7636C38.4976 72.7465 38.5722 72.7438 38.6452 72.7558L40.0585 72.9739C41.6444 73.217 42.5716 74.4759 42.3537 75.8961L42.352 75.9094C42.1323 77.3294 40.8667 78.2649 39.2805 78.0201L37.8672 77.8022C37.557 77.7535 37.3492 77.4719 37.3979 77.1617L38.0047 73.2253ZM39.4348 77.0176C40.3434 77.1584 41.0512 76.6406 41.1887 75.7451L41.1901 75.7318C41.3276 74.8365 40.8131 74.1154 39.9043 73.9748L39.0459 73.8423L38.5764 76.8853L39.4348 77.0176ZM44.7462 74.0133C44.7492 73.9394 44.7668 73.8668 44.7981 73.7997C44.8294 73.7327 44.8737 73.6725 44.9285 73.6227C44.9832 73.573 45.0473 73.5346 45.1171 73.5098C45.1868 73.485 45.2607 73.4743 45.3346 73.4784C45.4085 73.4814 45.481 73.4991 45.548 73.5304C45.6149 73.5617 45.675 73.6061 45.7246 73.6609C45.7742 73.7156 45.8125 73.7797 45.8371 73.8494C45.8617 73.9191 45.8721 73.993 45.8679 74.0668L45.67 78.1326C45.667 78.2065 45.6493 78.279 45.618 78.346C45.5866 78.4129 45.5423 78.473 45.4875 78.5226C45.4327 78.5723 45.3685 78.6105 45.2988 78.6351C45.2291 78.6597 45.1551 78.6701 45.0813 78.6658C45.0074 78.6627 44.9349 78.645 44.8679 78.6136C44.8009 78.5822 44.7408 78.5379 44.6911 78.4832C44.6413 78.4284 44.603 78.3643 44.5782 78.2946C44.5534 78.225 44.5427 78.151 44.5466 78.0772L44.7462 74.0133ZM48.1712 74.1725C48.1667 74.0988 48.1768 74.0249 48.2011 73.9552C48.2253 73.8855 48.2632 73.8213 48.3126 73.7664C48.3619 73.7115 48.4216 73.6669 48.4883 73.6353C48.555 73.6037 48.6274 73.5857 48.7011 73.5823L51.5562 73.4249C51.6233 73.4209 51.6904 73.4303 51.7538 73.4525C51.8171 73.4747 51.8755 73.5093 51.9253 73.5542C51.9752 73.5991 52.0157 73.6535 52.0444 73.7142C52.0731 73.7749 52.0895 73.8406 52.0926 73.9077C52.0968 73.9746 52.0876 74.0417 52.0655 74.1051C52.0435 74.1684 52.0091 74.2267 51.9643 74.2767C51.9196 74.3266 51.8653 74.3671 51.8047 74.3958C51.7441 74.4246 51.6784 74.441 51.6114 74.4441L49.3181 74.5699L49.3785 75.6564L51.3434 75.5472C51.4103 75.5432 51.4775 75.5525 51.5408 75.5745C51.6042 75.5966 51.6626 75.631 51.7126 75.6757C51.7626 75.7204 51.8033 75.7746 51.8323 75.8352C51.8612 75.8957 51.8779 75.9614 51.8814 76.0284C51.8856 76.0954 51.8764 76.1626 51.8544 76.2261C51.8324 76.2895 51.7981 76.348 51.7533 76.3981C51.7085 76.4481 51.6543 76.4888 51.5937 76.5178C51.5331 76.5467 51.4673 76.5633 51.4002 76.5666L49.4337 76.6756L49.5124 78.1309C49.5173 78.2047 49.5073 78.2787 49.4832 78.3486C49.4591 78.4185 49.4212 78.4829 49.3719 78.538C49.3226 78.5931 49.2627 78.6378 49.1959 78.6695C49.1291 78.7012 49.0566 78.7192 48.9827 78.7225C48.909 78.7269 48.8352 78.7167 48.7654 78.6924C48.6957 78.6682 48.6314 78.6303 48.5764 78.581C48.5214 78.5318 48.4766 78.4721 48.4448 78.4055C48.413 78.3388 48.3947 78.2665 48.391 78.1928L48.1712 74.1725ZM54.1281 73.6763C54.1127 73.6039 54.1119 73.5292 54.1257 73.4565C54.1395 73.3838 54.1677 73.3146 54.2086 73.2529C54.2494 73.1912 54.3022 73.1383 54.3638 73.0973C54.4254 73.0563 54.4945 73.0279 54.5672 73.0139L57.3688 72.444C57.4344 72.4301 57.5022 72.4294 57.5681 72.4419C57.634 72.4545 57.6968 72.4799 57.7528 72.5169C57.8088 72.5539 57.8569 72.6016 57.8943 72.6573C57.9317 72.713 57.9577 72.7756 57.9707 72.8414C57.9847 72.9073 57.9854 72.9753 57.9729 73.0414C57.9603 73.1076 57.9347 73.1706 57.8975 73.2267C57.8604 73.2829 57.8125 73.3311 57.7565 73.3685C57.7006 73.406 57.6377 73.4319 57.5716 73.4449L55.32 73.9027L55.5364 74.9671L57.4677 74.5749C57.5335 74.5612 57.6013 74.5606 57.6673 74.5733C57.7332 74.586 57.796 74.6116 57.852 74.6488C57.908 74.6859 57.9561 74.7337 57.9934 74.7896C58.0308 74.8454 58.0567 74.9081 58.0697 74.974C58.0834 75.0397 58.0839 75.1076 58.0712 75.1735C58.0585 75.2395 58.0328 75.3023 57.9957 75.3582C57.9586 75.4142 57.9108 75.4623 57.855 75.4997C57.7991 75.537 57.7365 75.563 57.6706 75.576L55.7409 75.9682L56.0309 77.3981C56.0461 77.4704 56.0468 77.5449 56.033 77.6174C56.0191 77.69 55.9911 77.759 55.9504 77.8206C55.9097 77.8822 55.8572 77.9352 55.796 77.9763C55.7347 78.0175 55.6659 78.0461 55.5934 78.0605C55.521 78.0759 55.4463 78.0767 55.3736 78.0629C55.3008 78.049 55.2316 78.0208 55.1699 77.9799C55.1083 77.939 55.0554 77.8861 55.0143 77.8245C54.9733 77.7629 54.945 77.6937 54.9311 77.621L54.1281 73.6763ZM61.421 76.0067L60.0043 72.2847C59.9777 72.2158 59.965 72.1423 59.9669 72.0685C59.9689 71.9947 59.9855 71.922 60.0157 71.8547C60.046 71.7873 60.0893 71.7266 60.1431 71.6761C60.197 71.6256 60.2603 71.5863 60.3295 71.5604L62.9751 70.5546C63.0368 70.531 63.1026 70.5198 63.1687 70.5217C63.2347 70.5236 63.2998 70.5385 63.3601 70.5656C63.4203 70.5927 63.4747 70.6314 63.52 70.6796C63.5652 70.7277 63.6006 70.7843 63.6239 70.8462C63.7228 71.1045 63.5887 71.3894 63.3304 71.4883L61.2031 72.2965L61.5718 73.2655L63.3925 72.5732C63.517 72.526 63.6551 72.53 63.7767 72.5843C63.8983 72.6386 63.9934 72.7389 64.0413 72.8631C64.1403 73.1231 64.0061 73.408 63.7481 73.507L61.9273 74.1993L62.3079 75.2019L64.469 74.3787C64.594 74.332 64.7323 74.3364 64.8541 74.391C64.9758 74.4456 65.0712 74.5459 65.1195 74.6703C65.1426 74.7318 65.1532 74.7973 65.1509 74.863C65.1485 74.9287 65.1332 74.9932 65.1057 75.053C65.0783 75.1127 65.0393 75.1664 64.991 75.211C64.9427 75.2555 64.886 75.2901 64.8243 75.3127L62.1452 76.3319C61.8517 76.4444 61.5332 76.3 61.421 76.0067ZM65.7514 69.8724C65.7121 69.8097 65.6856 69.7399 65.6736 69.6668C65.6615 69.5938 65.6642 69.5192 65.6813 69.4472C65.6985 69.3752 65.7299 69.3074 65.7735 69.2477C65.8172 69.1879 65.8724 69.1375 65.9358 69.0994L67.4464 68.1739C67.9996 67.8336 68.5245 67.7261 68.9857 67.8369C69.376 67.9306 69.7164 68.1923 69.968 68.603L69.9763 68.6153C70.3954 69.2994 70.3134 69.9313 69.9176 70.4729L71.0795 70.8735C71.2455 70.9339 71.3678 70.9959 71.46 71.1451C71.6225 71.4117 71.5069 71.7235 71.2774 71.8643C71.0593 71.9985 70.8514 71.9801 70.652 71.9064L68.994 71.2961L68.2296 71.7656L68.8128 72.716C68.852 72.7787 68.8783 72.8486 68.8902 72.9215C68.9021 72.9945 68.8994 73.0691 68.8823 73.141C68.8651 73.2129 68.8338 73.2807 68.7903 73.3404C68.7467 73.4001 68.6917 73.4506 68.6284 73.4888C68.5657 73.5279 68.4959 73.5542 68.423 73.5661C68.35 73.578 68.2755 73.5754 68.2036 73.5582C68.1317 73.5411 68.0639 73.5099 68.0042 73.4663C67.9445 73.4228 67.894 73.3679 67.8557 73.3047L65.7514 69.8724ZM68.6803 70.3248C69.1465 70.0382 69.2621 69.6258 69.0375 69.2604L69.0292 69.2469C68.7776 68.8361 68.3618 68.8011 67.8957 69.0858L66.9452 69.6712L67.7113 70.9201L68.6803 70.3248ZM74.015 69.0459L71.289 66.1437C71.2379 66.0901 71.1979 66.027 71.1715 65.9579C71.145 65.8888 71.1326 65.8151 71.1349 65.7411C71.1373 65.6671 71.1543 65.5944 71.185 65.527C71.2158 65.4597 71.2596 65.3992 71.314 65.349L73.378 63.4125C73.4261 63.3671 73.4826 63.3316 73.5444 63.3081C73.6061 63.2846 73.672 63.2736 73.738 63.2756C73.8041 63.2776 73.8691 63.2927 73.9293 63.32C73.9895 63.3472 74.0438 63.3861 74.0889 63.4343C74.2785 63.6356 74.2633 63.9507 74.0619 64.1401L72.4022 65.6977L73.1114 66.4538L74.5314 65.1193C74.6288 65.0282 74.7584 64.9795 74.8917 64.9839C75.025 64.9883 75.1511 65.0455 75.2423 65.1428C75.4318 65.3438 75.4166 65.6592 75.2154 65.8485L73.7954 67.1814L74.5297 67.9625L76.2148 66.3801C76.3125 66.289 76.4423 66.2404 76.5758 66.2448C76.7093 66.2491 76.8356 66.3062 76.9272 66.4034C77.1167 66.6046 77.1015 66.92 76.8987 67.1093L74.8099 69.0709C74.7563 69.122 74.6932 69.162 74.624 69.1885C74.5549 69.2149 74.4812 69.2274 74.4072 69.225C74.3332 69.2227 74.2604 69.2057 74.1931 69.1749C74.1257 69.1441 74.0652 69.1003 74.015 69.0459ZM75.7184 61.607C75.6571 61.5656 75.6046 61.5125 75.564 61.4506C75.5235 61.3888 75.4956 61.3195 75.482 61.2468C75.4684 61.1741 75.4695 61.0994 75.485 61.0271C75.5006 60.9548 75.5304 60.8863 75.5726 60.8256L75.638 60.7298C75.7905 60.5069 75.9901 60.4484 76.2381 60.4332L79.8092 60.2505L77.6346 58.7633C77.5164 58.6788 77.4361 58.5514 77.4108 58.4084C77.3855 58.2654 77.4174 58.1181 77.4994 57.9983C77.5815 57.8785 77.7073 57.7956 77.8498 57.7675C77.9922 57.7393 78.1401 57.7682 78.2615 57.8478L81.6149 60.1416C81.6763 60.1827 81.7289 60.2355 81.7696 60.2971C81.8103 60.3587 81.8383 60.4278 81.852 60.5004C81.8658 60.573 81.8649 60.6475 81.8495 60.7197C81.8341 60.792 81.8045 60.8604 81.7624 60.921L81.7405 60.9512C81.5897 61.1741 81.3902 61.2329 81.1421 61.2481L77.4402 61.4407L79.6986 62.9832C79.8201 63.0662 79.9038 63.194 79.9311 63.3387C79.9585 63.4833 79.9273 63.6329 79.8444 63.7545C79.8033 63.8147 79.7508 63.8663 79.6898 63.9061C79.6287 63.946 79.5604 63.9734 79.4888 63.9868C79.4171 64.0002 79.3435 63.9993 79.2722 63.9842C79.2009 63.969 79.1333 63.94 79.0733 63.8986L75.7184 61.607ZM81.3247 56.4414L81.3114 56.4366C79.9652 55.8984 79.2676 54.4399 79.8494 52.9845C80.1345 52.2738 80.5168 51.8697 80.9644 51.5931C81.0385 51.5496 81.1216 51.5236 81.2072 51.5169C81.2929 51.5102 81.3789 51.5231 81.4589 51.5546C81.526 51.5817 81.587 51.6218 81.6386 51.6726C81.6901 51.7234 81.7311 51.7839 81.7591 51.8506C81.7872 51.9172 81.8018 51.9888 81.802 52.0612C81.8023 52.1335 81.7883 52.2052 81.7607 52.2721C81.7036 52.4146 81.6116 52.4884 81.5343 52.5438C81.2008 52.7481 80.9577 53.0047 80.8084 53.3769C80.4882 54.1749 80.9223 55.0164 81.7338 55.3418L81.7472 55.3466C82.5604 55.672 83.4623 55.3803 83.7876 54.5688C83.9637 54.1279 83.9435 53.7825 83.8262 53.3901C83.7877 53.2735 83.7913 53.1472 83.8364 53.0331C83.942 52.7681 84.2488 52.6323 84.5119 52.7379C84.6744 52.8033 84.7702 52.9358 84.8137 53.0633C85.0149 53.6381 85.0383 54.2285 84.735 54.9862C84.1767 56.381 82.6862 56.9863 81.3247 56.4414ZM85.7023 49.893L81.7909 49.1369C81.7182 49.1236 81.649 49.0959 81.5871 49.0555C81.5253 49.0151 81.4721 48.9628 81.4307 48.9016C81.3893 48.8404 81.3606 48.7716 81.3461 48.6991C81.3317 48.6267 81.3319 48.5521 81.3466 48.4797L81.8832 45.7C81.9093 45.5692 81.9858 45.4539 82.0963 45.3792C82.2067 45.3045 82.3422 45.2764 82.4733 45.3009C82.6033 45.327 82.7176 45.4036 82.7912 45.5139C82.8647 45.6243 82.8915 45.7593 82.8655 45.8893L82.4331 48.1243L83.449 48.322L83.8195 46.409C83.8449 46.2779 83.9213 46.1622 84.032 46.0873C84.1426 46.0125 84.2785 45.9848 84.4096 46.0101C84.6812 46.0622 84.8539 46.3267 84.8004 46.5986L84.4315 48.5113L85.4842 48.7142L85.9237 46.4442C85.949 46.3134 86.0251 46.1979 86.1353 46.1231C86.2456 46.0483 86.3811 46.0203 86.512 46.0453C86.7852 46.0989 86.9563 46.3619 86.9044 46.6338L86.3595 49.4487C86.3462 49.5214 86.3186 49.5906 86.2782 49.6525C86.2378 49.7143 86.1854 49.7675 86.1242 49.8089C86.063 49.8503 85.9942 49.879 85.9218 49.8935C85.8493 49.9079 85.7747 49.9077 85.7023 49.893ZM48.5016 7.60729C29.0571 7.60729 6.82787 22.1412 6.82787 40.3065C6.82787 58.4717 28.1435 71.7064 47.5894 71.7064C67.0339 71.7064 80.371 58.4717 80.371 40.3065C80.371 22.1412 67.9477 7.60729 48.5016 7.60729ZM2.33657 39.1799C2.03774 39.1799 1.75115 39.2986 1.53982 39.5098C1.32849 39.7211 1.20975 40.0077 1.20969 40.3065C1.2098 40.6053 1.32857 40.8919 1.53989 41.1031C1.75121 41.3143 2.03778 41.433 2.33657 41.433C2.6353 41.4329 2.92176 41.3142 3.13299 41.103C3.34422 40.8917 3.46293 40.6053 3.46304 40.3065C3.46304 40.0077 3.34438 39.7212 3.13313 39.5099C2.92189 39.2985 2.63537 39.1798 2.33657 39.1797V39.1799ZM84.8672 39.1797C84.5685 39.1798 84.2819 39.2985 84.0707 39.5099C83.8595 39.7212 83.7408 40.0077 83.7408 40.3065C83.7409 40.6053 83.8596 40.8917 84.0708 41.103C84.2821 41.3142 84.5685 41.4329 84.8672 41.433C85.0151 41.433 85.1615 41.4038 85.2981 41.3472C85.4347 41.2905 85.5587 41.2075 85.6632 41.1029C85.7677 40.9983 85.8505 40.8741 85.907 40.7375C85.9634 40.6008 85.9924 40.4544 85.9923 40.3065C85.9924 40.1587 85.9635 40.0122 85.9071 39.8756C85.8506 39.7389 85.7678 39.6147 85.6634 39.51C85.5589 39.4054 85.4349 39.3223 85.2983 39.2656C85.1617 39.209 85.0153 39.1797 84.8675 39.1797H84.8672ZM82.9913 12.6202C82.9913 11.4918 83.9099 10.573 85.0383 10.573C86.1666 10.573 87.0854 11.4918 87.0854 12.6202C87.0854 13.7485 86.1668 14.6671 85.0383 14.6671C83.9101 14.6671 82.9913 13.7485 82.9913 12.6202ZM86.5859 12.6202C86.5859 11.6612 85.895 10.9704 85.0383 10.9704C84.1817 10.9704 83.4908 11.6612 83.4908 12.6202C83.4908 13.5775 84.1817 14.2699 85.0385 14.2699C85.895 14.2699 86.5859 13.5775 86.5859 12.6202ZM84.2505 11.4516H85.1122C85.6671 11.4516 85.9689 11.6443 85.9689 12.1323C85.9689 12.5296 85.7409 12.7224 85.362 12.756L85.9856 13.7704H85.543L84.941 12.7726H84.6812V13.7704H84.2505V11.4516ZM84.6812 12.4441H85.0618C85.3168 12.4441 85.538 12.4106 85.538 12.0988C85.538 11.8255 85.288 11.7801 85.0668 11.7801H84.6814L84.6812 12.4441Z" fill="#63237A"/>
</svg>
